<?xml version="1.0" encoding="UTF-8" standalone="no"?>
<svg width="60px" height="41px" viewBox="0 0 60 41" version="1.1" xmlns="http://www.w3.org/2000/svg" xmlns:xlink="http://www.w3.org/1999/xlink" xmlns:sketch="http://www.bohemiancoding.com/sketch/ns">
    <!-- Generator: Sketch 3.3.2 (12043) - http://www.bohemiancoding.com/sketch -->
    <title>Loki</title>
    <desc>Created with Sketch.</desc>
    <defs></defs>
    <g id="Page-1" stroke="none" stroke-width="1" fill="none" fill-rule="evenodd" sketch:type="MSPage">
        <path d="M13.125,25.91 C5.845,25.91 2.8,21.955 2.8,18.21 C2.8,14.815 5.285,11.56 9.38,11.56 C10.43,11.56 11.305,11.805 12.11,12.295 L13.475,9.495 C12.18,8.76 11.06,8.445 9.415,8.445 C3.64,8.445 0,13.135 0,17.86 C0,22.725 3.85,27.66 13.125,27.66 C14.525,27.66 15.855,27.52 17.08,27.275 C16.555,29.725 15.96,31.685 15.26,33.26 C13.51,32.665 11.515,32.28 9.205,32.28 C5.495,32.28 3.675,34.415 3.675,36.48 C3.675,38.44 5.285,40.295 8.435,40.295 C11.305,40.295 14.245,39.28 16.695,36.025 C20.335,37.845 23.695,40.295 27.825,40.295 C31.29,40.295 33.705,38.16 34.615,34.94 L31.78,34.205 C31.43,35.745 30.1,37.67 27.755,37.67 C24.115,37.67 21.28,35.78 17.85,34.24 C18.97,32.21 19.95,29.585 20.685,26.155 C28.665,22.76 32.62,14.255 32.62,8.025 C32.62,3.93 30.905,0.85 27.51,0.85 C23.205,0.85 20.02,3.825 18.305,19.54 C18.06,21.675 17.815,23.6 17.5,25.315 C16.17,25.7 14.7,25.91 13.125,25.91 L13.125,25.91 Z M27.475,2.6 C28.875,2.6 29.645,4.49 29.645,7.15 C29.645,12.085 27.055,19.75 21.175,23.565 C21.385,22.305 21.595,20.975 21.735,19.54 C23.345,4.49 25.55,2.6 27.475,2.6 L27.475,2.6 Z M8.89,38.615 C7.105,38.615 6.23,37.6 6.23,36.55 C6.23,35.325 7.35,33.995 9.52,33.995 C11.27,33.995 12.88,34.38 14.385,34.975 C12.81,37.6 10.955,38.615 8.89,38.615 L8.89,38.615 Z M40.81,23.635 C40.18,25.28 39.34,26.155 38.43,26.575 C38.885,25.035 39.305,23.25 39.305,21.535 C39.305,18.385 38.08,15.69 35.735,15.69 C33.25,15.69 31.78,18.035 31.395,20.73 L30.135,20.415 C29.435,22.48 29.05,24.685 29.05,26.645 C29.05,29.83 30.1,32.35 32.515,32.35 C34.755,32.35 36.54,30.845 37.73,28.29 C39.41,27.695 40.985,26.225 41.79,24.125 C41.79,23.915 41.02,23.635 40.81,23.635 L40.81,23.635 Z M34.965,17.965 C35.035,17.965 35.14,17.93 35.21,17.93 C36.19,17.93 36.575,19.12 36.575,20.695 C36.575,22.55 36.05,25 35.28,26.855 C33.705,26.4 33.145,24.58 33.145,22.69 C33.145,20.45 33.95,18.175 34.965,17.965 L34.965,17.965 Z M33.25,29.655 C33.145,29.69 33.075,29.69 32.97,29.69 C32.095,29.69 31.535,28.255 31.535,26.19 C31.535,25.735 31.57,25.21 31.64,24.685 C32.13,26.365 33.075,27.765 34.545,28.325 C34.125,29.025 33.705,29.515 33.25,29.655 L33.25,29.655 Z M42.28,32 C42.525,30.04 42.84,28.01 43.155,26.015 L43.68,26.015 C44.24,28.15 44.205,32.175 47.04,32.175 C49.49,32.175 51.135,28.115 52.675,24.125 C52.675,23.915 51.905,23.635 51.695,23.635 C50.155,27.66 48.65,29.375 47.81,29.375 C46.83,29.375 47.04,26.89 45.955,25.28 C48.65,23.775 50.435,20.38 50.435,18.07 C50.435,16.67 49.805,15.69 48.37,15.69 C46.83,15.69 45.43,17.125 44.31,19.47 L44.87,16.565 C47.04,13.905 50.05,9.11 50.05,6.275 C50.05,4.945 49.385,4.07 47.635,4.07 C46.585,4.07 45.36,4.735 44.695,6.24 C43.26,9.495 41.72,18 40.495,25.42 C40.495,25.42 39.41,28.29 39.41,31.055 C39.41,31.37 39.41,31.685 39.445,32 L42.28,32 Z M47.355,18.21 C47.67,18.28 47.775,18.56 47.775,18.91 C47.775,20.24 46.165,22.935 44.625,24.195 C44.31,24.09 43.925,23.985 43.505,23.985 L43.68,22.9 C45.185,19.4 46.34,18.21 47.18,18.21 L47.355,18.21 L47.355,18.21 Z M48.09,7.115 C47.67,9.18 46.55,11.735 45.535,13.625 C46.795,7.815 47.25,6.345 47.81,6.345 C47.985,6.345 48.125,6.52 48.125,6.835 C48.125,6.905 48.09,7.01 48.09,7.115 L48.09,7.115 Z M53.34,16.04 C52.745,18.56 51.205,24.125 51.205,28.01 C51.205,30.425 51.835,32.175 53.725,32.175 C56.595,32.175 57.82,28.115 59.36,24.125 L59.36,24.09 C59.36,23.88 58.555,23.635 58.38,23.635 C56.84,27.66 55.685,29.62 54.775,29.62 C54.46,29.62 54.075,29.445 54.075,28.43 C54.075,25.56 55.09,21.5 56.315,16.04 L53.34,16.04 Z M55.405,14.01 C56.945,14.01 57.855,12.54 57.855,11.28 C57.855,10.3 57.365,9.46 56.21,9.46 C54.67,9.46 53.76,10.965 53.76,12.225 C53.76,13.17 54.285,14.01 55.405,14.01 L55.405,14.01 Z" id="Loki" fill="#FFFFFF" sketch:type="MSShapeGroup"></path>
    </g>
</svg>